<?xml version="1.0" encoding="UTF-8"?>
<svg version="1.1" xmlns="http://www.w3.org/2000/svg" width="61" height="95">
<path d="M0 0 C4.95 0 9.9 0 15 0 C16.32 6.93 17.64 13.86 19 21 C19 20.67 19 20.34 19 20 C19 18.33333333 19 16.66666667 19 15 C19.99 16.32 20.98 17.64 22 19 C22.20496094 17.79601562 22.40992187 16.59203125 22.62109375 15.3515625 C22.89306359 13.77601308 23.16520807 12.20049379 23.4375 10.625 C23.57220703 9.8309375 23.70691406 9.036875 23.84570312 8.21875 C24.88671875 2.2265625 24.88671875 2.2265625 26 0 C30.95 0 35.9 0 41 0 C41 24.75 41 49.5 41 75 C37.37 75 33.74 75 30 75 C30 60.48 30 45.96 30 31 C29.34 45.52 28.68 60.04 28 75 C22.72 75 17.44 75 12 75 C11.34 62.79 10.68 50.58 10 38 C10 50.21 10 62.42 10 75 C6.7 75 3.4 75 0 75 C0 50.25 0 25.5 0 0 Z " fill="#DB202C" transform="translate(10,10)"/>
<path d="M0 0 C0.33 0 0.66 0 1 0 C1 1.65 1 3.3 1 5 C0.67 5 0.34 5 0 5 C0 3.35 0 1.7 0 0 Z " fill="#DB202C" transform="translate(31,23)"/>
<path d="M0 0 C0.33 0 0.66 0 1 0 C1 1.65 1 3.3 1 5 C0.67 5 0.34 5 0 5 C0 3.35 0 1.7 0 0 Z " fill="#DB202C" transform="translate(28,19)"/>
<path d="M0 0 C0.33 0 0.66 0 1 0 C1 1.65 1 3.3 1 5 C0.67 5 0.34 5 0 5 C0 3.35 0 1.7 0 0 Z " fill="#DB202C" transform="translate(32,17)"/>
<path d="M0 0 C0.33 0 0.66 0 1 0 C1 1.65 1 3.3 1 5 C0.67 5 0.34 5 0 5 C0 3.35 0 1.7 0 0 Z " fill="#DB202C" transform="translate(27,14)"/>
<path d="M0 0 C0.33 0 0.66 0 1 0 C1 1.65 1 3.3 1 5 C0.67 5 0.34 5 0 5 C0 3.35 0 1.7 0 0 Z " fill="#DB202C" transform="translate(33,11)"/>
<path d="" fill="#DB202C" transform="translate(0,0)"/>
</svg>
